<?xml version="1.0" standalone="no"?>
<!DOCTYPE svg PUBLIC "-//W3C//DTD SVG 20010904//EN"
 "http://www.w3.org/TR/2001/REC-SVG-20010904/DTD/svg10.dtd">
<svg version="1.0" xmlns="http://www.w3.org/2000/svg"
 width="380.000000pt" height="468.000000pt" viewBox="0 0 380.000000 468.000000"
 preserveAspectRatio="xMidYMid meet">
<metadata>
Created by potrace 1.16, written by Peter Selinger 2001-2019
</metadata>
<g transform="translate(0.000000,468.000000) scale(0.100000,-0.100000)"
fill="#000000" stroke="none">
<path d="M1544 4022 c0 -104 -15 -170 -60 -263 -23 -47 -98 -166 -113 -179 -4
-3 -26 -30 -51 -60 -25 -30 -47 -57 -50 -60 -29 -27 -159 -186 -217 -265 -40
-55 -76 -104 -80 -110 -30 -38 -94 -196 -119 -290 -27 -101 -27 -376 -1 -402
17 -17 19 -16 52 19 19 20 35 40 35 43 0 4 19 30 43 59 75 91 81 98 294 323
190 201 197 209 262 303 108 156 153 272 166 427 15 165 -54 420 -142 530 -18
22 -18 21 -19 -75z"/>
<path d="M1790 3683 c0 -10 5 -38 11 -61 12 -54 -11 -223 -42 -310 -25 -69
-61 -146 -71 -150 -5 -2 -8 -9 -8 -15 -1 -21 -129 -181 -235 -292 -24 -26
-211 -225 -300 -320 -116 -124 -230 -309 -277 -449 -31 -92 -36 -258 -10 -361
39 -154 140 -330 186 -323 20 3 21 9 21 113 1 86 5 122 22 167 23 62 91 173
144 232 37 43 185 176 238 216 19 14 39 30 45 35 6 6 27 22 46 35 19 13 37 27
40 30 3 3 21 17 40 30 19 13 37 27 40 30 3 3 25 21 50 40 59 44 200 186 230
230 13 19 27 37 30 40 4 3 21 35 38 71 120 258 120 479 -1 739 -17 36 -33 67
-36 70 -3 3 -21 28 -40 55 -36 53 -140 165 -153 165 -4 0 -8 -8 -8 -17z"/>
<path d="M1963 2223 c-60 -6 -53 -19 15 -28 136 -16 330 -101 424 -185 98 -87
157 -223 143 -327 -9 -61 -45 -173 -56 -173 -5 0 -9 -6 -9 -14 0 -24 -108
-153 -178 -212 -122 -104 -319 -215 -467 -265 -38 -13 -72 -26 -75 -29 -13
-14 -278 -76 -395 -93 -150 -21 -504 -14 -605 13 -77 21 -176 51 -195 59 -195
87 -316 198 -347 319 -16 66 -30 37 -31 -65 -1 -233 139 -424 404 -553 62 -30
223 -86 405 -141 137 -41 523 -57 724 -30 304 41 562 117 807 239 360 179 593
416 663 673 118 438 -336 791 -1045 813 -77 2 -159 2 -182 -1z"/>
<path d="M2140 1888 c-80 -5 -147 -11 -149 -13 -2 -2 0 -20 3 -39 5 -26 12
-36 29 -38 20 -3 23 -10 29 -93 5 -49 12 -121 16 -159 8 -62 7 -69 -10 -74
-12 -3 -18 -14 -18 -32 l0 -28 69 31 c43 19 67 36 62 42 -5 5 -9 38 -10 73
l-2 62 40 0 c34 0 41 3 41 19 0 11 -6 22 -12 24 -10 4 -10 6 0 6 6 1 12 6 12
12 0 6 -18 9 -47 8 l-48 -3 -5 63 c-3 34 -3 64 0 66 3 2 32 5 65 6 59 4 60 4
63 -24 3 -26 6 -27 44 -22 23 3 43 7 45 9 2 2 1 29 -3 60 -7 55 -7 56 -38 55
-17 -1 -96 -6 -176 -11z"/>
<path d="M1753 1856 l-133 -9 0 -33 c0 -27 4 -33 28 -39 27 -6 27 -6 30 -103
1 -53 7 -121 13 -149 12 -60 5 -95 -17 -86 -10 4 -14 -2 -14 -21 0 -14 5 -26
11 -26 22 0 129 65 125 76 -2 6 -8 32 -11 58 -4 25 -12 46 -19 46 -34 1 33 22
87 27 46 4 70 12 90 29 l28 24 -11 87 c-16 127 -25 132 -207 119z"/>
<path d="M1363 1826 c-89 -7 -164 -14 -165 -16 -2 -3 -2 -31 0 -62 l4 -58 39
0 c37 0 39 2 39 30 0 33 22 49 43 32 7 -6 14 -30 15 -54 2 -24 7 -81 13 -128
16 -140 16 -150 -6 -150 -8 0 -15 -9 -15 -20 0 -11 5 -20 10 -20 6 0 10 5 10
11 0 5 4 8 8 5 4 -2 21 1 37 9 17 7 38 16 48 19 13 4 16 13 13 33 -2 16 -8 74
-11 131 -4 56 -11 105 -16 108 -16 9 -10 64 7 71 22 8 48 -9 52 -36 3 -16 10
-21 32 -21 16 0 31 3 33 8 7 14 -8 115 -18 117 -5 1 -83 -3 -172 -9z"/>
</g>
</svg>
